# xmcd
#
# Track frame offsets: 
#        150
#        70692
#        115975
#        178025
#        211667
#        243166
#        292590
#
# Disc length: 4289 seconds
#
# Revision: 3
# Processed by: cddbd v1.5.1PL2 Copyright (c) Steve Scherf et al.
# Submitted via: ExactAudioCopy v0.95b4
#
DISCID=5610bf07
DTITLE=Jimmy Smith - Groovin' At Smalls' Paradise [CD 2)
DYEAR=1957
DGENRE=Jazz
TTITLE0=Indiana
TTITLE1=Body And Soul
TTITLE2=The Champ
TTITLE3=Lover Man
TTITLE4=Slightly Monkish
TTITLE5=After Hours
TTITLE6=Just Friends
EXTD=YEAR: 1957
EXTT0=
EXTT1=
EXTT2=
EXTT3=
EXTT4=
EXTT5=
EXTT6=
PLAYORDER=
